<?xml version="1.0" encoding="utf-8"?>
<!-- Generator: Adobe Illustrator 25.0.0, SVG Export Plug-In . SVG Version: 6.00 Build 0)  -->
<svg version="1.1" id="Layer_1" xmlns="http://www.w3.org/2000/svg" xmlns:xlink="http://www.w3.org/1999/xlink" x="0px" y="0px"
	 width="338.1px" height="49.2px" viewBox="0 0 338.1 49.2" style="enable-background:new 0 0 338.1 49.2;" xml:space="preserve">
<style type="text/css">
	.st0{fill:#EB2127;}
</style>
<polygon class="st0" points="317.5,37.2 317.5,29.8 335,29.8 335,18.9 317.5,18.9 317.5,11.8 337.1,11.8 337.1,0.8 304.7,0.8 
	304.7,48.2 338.1,48.2 338.1,37.2 "/>
<g>
	<path id="XMLID_30_" d="M58.5,47.8c-6.3,0-11.5-2.1-15.4-6.3c-4-4.2-6-9.6-6-16.3c0-7.1,2-12.8,6.1-17.2c4-4.4,9.4-6.6,16.1-6.6
		c6.3,0,11.4,2.1,15.3,6.3c3.9,4.2,5.8,9.7,5.8,16.6c0,7.1-2,12.7-6,17.1C70.2,45.7,65,47.8,58.5,47.8z M58.9,10.1
		c-3.5,0-6.3,1.3-8.3,4s-3.1,6.2-3.1,10.6c0,4.4,1,8,3.1,10.5c2.1,2.6,4.7,3.9,8.1,3.9c3.4,0,6.1-1.3,8.1-3.8c2-2.5,3-6,3-10.5
		c0-4.7-1-8.3-2.9-10.9C65,11.4,62.3,10.1,58.9,10.1z"/>
	<path id="XMLID_28_" d="M117,44.5c-3.2,1.5-7.4,2.3-12.6,2.3c-6.8,0-12.1-1.9-16-5.8c-3.9-3.9-5.8-9.1-5.8-15.5
		c0-6.9,2.2-12.5,6.5-16.8c4.4-4.3,10-6.4,17-6.4c4.3,0,7.9,0.5,10.9,1.6v9.3c-3-1.7-6.3-2.6-10.1-2.6c-4.1,0-7.5,1.3-10,3.8
		c-2.5,2.5-3.8,6-3.8,10.3c0,4.2,1.2,7.5,3.6,10c2.4,2.5,5.6,3.7,9.7,3.7c3.9,0,7.4-0.9,10.6-2.8V44.5z"/>
	<path id="XMLID_26_" d="M155.9,46.8h-12.5l-12.9-19.4c-0.2-0.4-0.6-1.2-1.2-2.5h-0.2v21.8h-9.9V2.2h9.9v21.1h0.2
		c0.2-0.6,0.7-1.4,1.2-2.5l12.2-18.6h11.8l-15.4,21.3L155.9,46.8z"/>
	<path id="XMLID_24_" d="M187.4,46.8h-30.6V2.2h29.6v8.2h-19.6v9.9h17.5v8.1h-17.5v10.2h20.7V46.8z"/>
	<path id="XMLID_22_" d="M223.7,10.4h-12.6v36.4h-10V10.4h-12.5V2.2h35.1V10.4z"/>
	<path d="M31.5,33.7c-0.5-0.7-1-1.2-1.6-2c-0.6-0.7-1.2-1.3-1.9-1.9c-0.6-0.6-1.1-1.1-1.8-1.6c-0.7-0.5-2-0.8-2-1v-0.1
		c2.4-0.4,3-1.1,4.4-1.8c1.4-0.8,2.5-1.7,3.4-2.8c1-1.1,1.7-2.3,2.2-3.6c0.5-1.3,0.8-2.6,0.8-4.2C35.1,6.4,29,2.4,17,2.4H0L0,8h0
		v11.1v3.3v24.3h9.7V29h3.7c0.7,0,1.3,0.7,1.9,0.9c0.6,0.3,1.2,0.9,1.7,1.4c0.5,0.5,1.1,1.2,1.6,1.9c0.5,0.7,1.1,1.2,1.7,2.1
		L28,46.8h12.9L31.5,33.7z M30.9,14.8c0.1,0,0.1,0.1,0.2,0.1C31,14.9,31,15,30.9,15V14.8z M22.5,19.4c-1.7,1.2-4,1.9-7,1.9H9.3V8.2
		h5.3c7,0,10.4,2,10.4,6.1C25.1,16.4,24.2,18.2,22.5,19.4z"/>
</g>
<g>
	<path class="st0" d="M247.8,41.6h6V15.7c-1.9,1.5-3.8,2.7-5.6,3.6c-1.8,0.9-4.1,1.8-6.8,2.6v-9.7c4-1.3,7.2-2.9,9.4-4.7
		c1.8-1.4,3.2-3.2,4.4-5.1C252,0.8,248.5,0,244.5,0c-7,0-12.8,2.4-17.1,7c-4.3,4.6-6.4,10.7-6.4,18.2c0,7.1,2.1,12.9,6.4,17.3
		c4.2,4.5,9.8,6.7,16.5,6.7c1.4,0,2.7-0.1,4-0.3V41.6z"/>
	<polygon class="st0" points="291.8,0.8 291.8,26.7 274.9,0.8 265.8,0.8 265.8,41.6 271.3,41.6 271.3,48.2 275.9,48.2 275.9,22.3 
		292.8,48.2 303.1,48.2 303.1,0.8 	"/>
</g>
<g>
</g>
<g>
</g>
<g>
</g>
<g>
</g>
<g>
</g>
<g>
</g>
</svg>
